<svg xmlns="http://www.w3.org/2000/svg" viewBox="0 0 267.03 89.64"><defs><style>.cls-1{fill:#fff;}</style></defs><g id="Capa_2" data-name="Capa 2"><g id="Capa_1-2" data-name="Capa 1"><path class="cls-1" d="M19.26,4.64C8.11,7.3,0,19.89,8.3,38.74h0C16.59,57.6,21.77,65.58,21.77,65.58h0A106.14,106.14,0,0,1,15,42.47h0c-1.66-10.76-.9-21.82,5.77-23h0c14.32-2.53,19.06,16.44,19.06,16.44h0S56.8,20.78,67,30.87h0c10.82,10.67.21,23.69.21,23.69h0a48.42,48.42,0,0,0,9.46-11.32h0c4-7,4.21-19.42-9.46-22.46h0c-16.05-3.56-24.46,7.43-24.46,7.43h0l-.27,0c2.3-8.91-6.45-24-19.27-24h0a16.75,16.75,0,0,0-4,.48"/><path class="cls-1" d="M59.93,18.33a27.09,27.09,0,0,1,9.93.45h0c13.68,3,12.74,15.09,9.46,22.44h0a51.94,51.94,0,0,1-5.27,9.28h0a47.26,47.26,0,0,0,7.78-9.78h0c4-7,4.22-19.41-9.46-22.45h0a29.17,29.17,0,0,0-6.26-.71h0a24.53,24.53,0,0,0-6.18.77"/><path class="cls-1" d="M22.2.65q-.93.35-1.83.75h0c10.93-3,25.64,12,25,21.25h0C47.35,14.34,36.47,0,26,0h0A11,11,0,0,0,22.2.65"/><path class="cls-1" d="M14.28,2.41C3.58,6.52-5,17.66,3.33,36.51h0c6.88,15.68,11.63,23.83,13,26.14h0C14.17,58.34,9.88,49.5,4.46,36.38h0c-7.88-19,.25-30,11-34.1h0a10.69,10.69,0,0,1,2-.54h0a10.33,10.33,0,0,0-3.16.67"/><path class="cls-1" d="M79.33,47.05s-1,.91-4.51,4.28h0C71.3,54.7,61.35,60.61,54,64h0c-7.36,3.41-16.53,5.75-17.26,3.62h0c-.72-2.12,8.39-6.53,12.49-8.6h0c4.09-2.07,4.23-4.37,4.42-5.1h0c.19-.73-.22-.57-.22-.57h0s-1.58.42-8.54,3.76h0c-7,3.34-12.11,2.48-21.55,9.83h0c-10.94,8.5-10,19.12-10,19.12h0C24,78.74,28.92,82.78,42,79.67h0C55,76.56,62.59,70,62.59,70h0c7.88-4.87,16.17-19.27,17.22-22.65h0c.11-.33,0-.41-.17-.41h0a.89.89,0,0,0-.31.08"/><path class="cls-1" d="M63.12,71.49S55.55,78,42.5,81.13h0c-12.9,3.07-17.91-.84-28.22,6.16h0a12.82,12.82,0,0,0-.06,2.35h0c10.56-7.36,15.54-3.32,28.59-6.42h0c13.06-3.11,20.62-9.64,20.62-9.64h0A38.93,38.93,0,0,0,72.2,62.49h0c-2.78,3.65-6,7.07-9.08,9"/><path class="cls-1" d="M95,50.8h2.69V12.47H95ZM130.9,12.47V31.55c0,6,0,10.41.44,15.55h0l-.11.09A123.06,123.06,0,0,0,124,35.12h0l-15-22.65h-2.57V50.8h2.63V31.41c0-6.39,0-10.51-.35-15.23h0l.15-.09a123,123,0,0,0,7.42,12.4h0L131,50.8h2.53V12.47Zm21.57,9.72a68,68,0,0,0,2-6.64h.14c.56,2.18,1.07,4.1,2,6.76h0l4.66,12.81H147.78Zm.81-9.72L139.41,50.8h2.78l4.73-13.41H162.1l4.81,13.41h2.8l-13.8-38.33Zm58.24,0V50.8h19.84V48.51H214.22V31.75h15.32V29.46H214.22V14.76h16.23V12.47Zm36.13,9.72a68,68,0,0,0,2-6.64h.15a69.45,69.45,0,0,0,2,6.76h0l4.67,12.81H243Zm.82-9.72L234.6,50.8h2.77l4.74-13.41h15.17L262.1,50.8h2.8L251.1,12.47Zm-70.6,36.06V15.05a37,37,0,0,1,7-.61h0c12.28,0,17.69,6.65,17.6,16.38h0c0,11.11-6.06,18-18.37,18h0a45.76,45.76,0,0,1-6.19-.28M175.17,13V50.76a83.65,83.65,0,0,0,8.49.34h0c7.39,0,13.17-2.18,16.54-5.87h0c3.47-3.82,5-8.91,5-14.54h0c0-5.8-1.7-10.09-4.78-13.28h0c-3.16-3.35-8.45-5.24-15.43-5.24h0a60.6,60.6,0,0,0-9.83.82"/><path class="cls-1" d="M94.57,60.5v9.34H93.36V60.5Z"/><path class="cls-1" d="M96.77,65c0-.7,0-1.26,0-1.82H97.8l.07,1.11h0A2.47,2.47,0,0,1,100.11,63c.93,0,2.37.55,2.37,2.85v4h-1.22V66c0-1.08-.4-2-1.55-2a1.75,1.75,0,0,0-1.64,1.25,1.91,1.91,0,0,0-.08.57v4H96.77Z"/><path class="cls-1" d="M104.3,68.59a3.12,3.12,0,0,0,1.6.49c.89,0,1.31-.45,1.31-1s-.35-.9-1.25-1.23c-1.21-.43-1.78-1.1-1.78-1.9a2.08,2.08,0,0,1,2.32-2,3.36,3.36,0,0,1,1.65.41l-.3.89a2.61,2.61,0,0,0-1.38-.39c-.72,0-1.12.42-1.12.92s.4.8,1.27,1.14c1.17.44,1.77,1,1.77,2,0,1.18-.92,2-2.51,2a3.8,3.8,0,0,1-1.89-.46Z"/><path class="cls-1" d="M111.42,61.2v1.93h1.75v.93h-1.75v3.62c0,.83.24,1.3.91,1.3a2.82,2.82,0,0,0,.71-.08l.06.91A2.93,2.93,0,0,1,112,70a1.7,1.7,0,0,1-1.32-.51,2.48,2.48,0,0,1-.47-1.75V64.06h-1v-.93h1V61.52Z"/><path class="cls-1" d="M115.9,61.25a.76.76,0,0,1-1.52,0,.75.75,0,0,1,.77-.77A.74.74,0,0,1,115.9,61.25Zm-1.36,8.59V63.13h1.22v6.71Z"/><path class="cls-1" d="M119.25,61.2v1.93H121v.93h-1.75v3.62c0,.83.24,1.3.91,1.3a2.82,2.82,0,0,0,.71-.08l.06.91a2.93,2.93,0,0,1-1.08.17,1.7,1.7,0,0,1-1.32-.51,2.48,2.48,0,0,1-.47-1.75V64.06h-1v-.93h1V61.52Z"/><path class="cls-1" d="M128,68q0,1,.06,1.83H127l-.06-1.09h0A2.53,2.53,0,0,1,124.64,70c-1,0-2.32-.58-2.32-2.94V63.13h1.22v3.72c0,1.27.39,2.13,1.5,2.13a1.71,1.71,0,0,0,1.72-1.73V63.13H128Z"/><path class="cls-1" d="M131.47,61.2v1.93h1.75v.93h-1.75v3.62c0,.83.24,1.3.92,1.3a2.73,2.73,0,0,0,.7-.08l.06.91a2.93,2.93,0,0,1-1.08.17,1.7,1.7,0,0,1-1.32-.51,2.48,2.48,0,0,1-.47-1.75V64.06h-1v-.93h1V61.52Z"/><path class="cls-1" d="M140.58,66.43A3.28,3.28,0,0,1,137.24,70,3.19,3.19,0,0,1,134,66.54,3.28,3.28,0,0,1,137.35,63,3.18,3.18,0,0,1,140.58,66.43Zm-5.33.07c0,1.47.85,2.58,2,2.58s2-1.1,2-2.61c0-1.13-.57-2.58-2-2.58S135.25,65.22,135.25,66.5Z"/><path class="cls-1" d="M145.09,69.84V60.5h1.32l3,4.72a25.12,25.12,0,0,1,1.68,3h0C151,67,151,65.86,151,64.41V60.5h1.14v9.34h-1.22l-3-4.74A31.94,31.94,0,0,1,146.17,62h0c.07,1.18.1,2.31.1,3.86v4Z"/><path class="cls-1" d="M157.89,69.84l-.1-.84h0a2.53,2.53,0,0,1-2.05,1,1.91,1.91,0,0,1-2.06-1.92c0-1.63,1.44-2.51,4-2.5v-.14a1.39,1.39,0,0,0-1.53-1.55,3.28,3.28,0,0,0-1.74.5l-.28-.81a4.15,4.15,0,0,1,2.2-.59c2,0,2.55,1.4,2.55,2.74v2.51a9.85,9.85,0,0,0,.11,1.61Zm-.18-3.42c-1.34,0-2.85.2-2.85,1.51A1.08,1.08,0,0,0,156,69.09,1.68,1.68,0,0,0,157.64,68a1.34,1.34,0,0,0,.07-.39Z"/><path class="cls-1" d="M165.63,69.59a4.4,4.4,0,0,1-1.92.39,3.19,3.19,0,0,1-3.35-3.42A3.42,3.42,0,0,1,164,63a4,4,0,0,1,1.69.35l-.28.94A2.78,2.78,0,0,0,164,64a2.53,2.53,0,0,0,0,5.05,3.46,3.46,0,0,0,1.49-.33Z"/><path class="cls-1" d="M168.42,61.25a.76.76,0,0,1-1.51,0,.74.74,0,0,1,.76-.77A.73.73,0,0,1,168.42,61.25Zm-1.36,8.59V63.13h1.22v6.71Z"/><path class="cls-1" d="M176.37,66.43A3.28,3.28,0,0,1,173,70a3.19,3.19,0,0,1-3.21-3.45A3.27,3.27,0,0,1,173.14,63,3.18,3.18,0,0,1,176.37,66.43Zm-5.32.07c0,1.47.85,2.58,2,2.58s2-1.1,2-2.61c0-1.13-.56-2.58-2-2.58S171.05,65.22,171.05,66.5Z"/><path class="cls-1" d="M177.91,65c0-.7,0-1.26-.06-1.82h1.08l.07,1.11h0A2.46,2.46,0,0,1,181.25,63c.93,0,2.37.55,2.37,2.85v4H182.4V66c0-1.08-.4-2-1.55-2a1.74,1.74,0,0,0-1.64,1.25,1.91,1.91,0,0,0-.08.57v4h-1.22Z"/><path class="cls-1" d="M189.31,69.84l-.09-.84h0a2.53,2.53,0,0,1-2.06,1,1.91,1.91,0,0,1-2.05-1.92c0-1.63,1.44-2.51,4-2.5v-.14a1.39,1.39,0,0,0-1.53-1.55,3.34,3.34,0,0,0-1.75.5l-.27-.81a4.15,4.15,0,0,1,2.2-.59c2.05,0,2.55,1.4,2.55,2.74v2.51a9.85,9.85,0,0,0,.11,1.61Zm-.18-3.42c-1.33,0-2.84.2-2.84,1.51a1.08,1.08,0,0,0,1.15,1.16A1.65,1.65,0,0,0,189.06,68a1.07,1.07,0,0,0,.07-.39Z"/><path class="cls-1" d="M192.28,60h1.22v9.84h-1.22Z"/><path class="cls-1" d="M204.28,60v8.11c0,.59,0,1.27.06,1.73h-1.1l-.05-1.16h0A2.48,2.48,0,0,1,200.87,70c-1.62,0-2.87-1.37-2.87-3.41,0-2.23,1.37-3.6,3-3.6a2.22,2.22,0,0,1,2,1h0V60Zm-1.22,5.86a2.21,2.21,0,0,0-.05-.51,1.79,1.79,0,0,0-1.76-1.41c-1.27,0-2,1.1-2,2.59s.67,2.48,2,2.48A1.84,1.84,0,0,0,203,67.55a2.14,2.14,0,0,0,.05-.52Z"/><path class="cls-1" d="M207,66.71a2.15,2.15,0,0,0,2.3,2.33,4.47,4.47,0,0,0,1.86-.35l.21.87a5.34,5.34,0,0,1-2.23.42,3.11,3.11,0,0,1-3.3-3.38c0-2,1.19-3.62,3.14-3.62,2.2,0,2.78,1.93,2.78,3.16,0,.25,0,.44,0,.57Zm3.58-.88a1.74,1.74,0,0,0-1.69-2,2,2,0,0,0-1.87,2Z"/><path class="cls-1" d="M217.74,66.9l-1,2.94h-1.25l3.17-9.34h1.46l3.19,9.34h-1.29l-1-2.94ZM220.8,66l-.91-2.69c-.21-.61-.35-1.17-.49-1.71h0c-.14.56-.29,1.13-.47,1.7L218,66Z"/><path class="cls-1" d="M224.62,65.22c0-.79,0-1.47-.05-2.09h1.06l.05,1.32h0A2,2,0,0,1,227.59,63a1.25,1.25,0,0,1,.35,0v1.15a1.76,1.76,0,0,0-.42,0,1.72,1.72,0,0,0-1.64,1.57,4.48,4.48,0,0,0,0,.56v3.58h-1.21Z"/><path class="cls-1" d="M229.21,65.22c0-.79,0-1.47-.06-2.09h1.07l0,1.32h.06A2,2,0,0,1,232.18,63a1.18,1.18,0,0,1,.34,0v1.15a1.68,1.68,0,0,0-.41,0,1.72,1.72,0,0,0-1.64,1.57,3.15,3.15,0,0,0-.05.56v3.58h-1.21Z"/><path class="cls-1" d="M235.16,61.25a.76.76,0,0,1-1.52,0,.75.75,0,0,1,.77-.77A.74.74,0,0,1,235.16,61.25Zm-1.36,8.59V63.13H235v6.71Z"/><path class="cls-1" d="M238.51,61.2v1.93h1.75v.93h-1.75v3.62c0,.83.23,1.3.91,1.3a2.82,2.82,0,0,0,.71-.08l.06.91a3,3,0,0,1-1.09.17,1.69,1.69,0,0,1-1.31-.51,2.48,2.48,0,0,1-.47-1.75V64.06h-1v-.93h1V61.52Z"/><path class="cls-1" d="M241.63,65c0-.7,0-1.26-.06-1.82h1.07l.05,1.08h.05a2.29,2.29,0,0,1,2.1-1.23,2,2,0,0,1,1.9,1.34h0a2.82,2.82,0,0,1,.75-.87A2.24,2.24,0,0,1,249,63c.89,0,2.21.58,2.21,2.91v4H250V66c0-1.29-.47-2.06-1.45-2.06a1.56,1.56,0,0,0-1.44,1.11,1.81,1.81,0,0,0-.1.61v4.14h-1.19v-4c0-1.07-.47-1.84-1.4-1.84a1.83,1.83,0,0,0-1.61,1.81v4h-1.19Z"/><path class="cls-1" d="M254.54,61.25a.71.71,0,0,1-.77.74.73.73,0,0,1-.74-.74.75.75,0,0,1,.76-.77A.73.73,0,0,1,254.54,61.25Zm-1.36,8.59V63.13h1.22v6.71Z"/><path class="cls-1" d="M260.14,69.84,260,69h0A2.5,2.5,0,0,1,258,70a1.9,1.9,0,0,1-2-1.92c0-1.63,1.44-2.51,4-2.5v-.14a1.38,1.38,0,0,0-1.52-1.55,3.32,3.32,0,0,0-1.75.5l-.28-.81a4.19,4.19,0,0,1,2.21-.59c2.05,0,2.55,1.4,2.55,2.74v2.51a9.85,9.85,0,0,0,.11,1.61ZM260,66.42c-1.33,0-2.84.2-2.84,1.51a1.08,1.08,0,0,0,1.15,1.16A1.66,1.66,0,0,0,259.89,68a1.34,1.34,0,0,0,.07-.39Z"/><path class="cls-1" d="M262.94,68.59a3.16,3.16,0,0,0,1.61.49c.88,0,1.3-.45,1.3-1s-.35-.9-1.25-1.23c-1.2-.43-1.77-1.1-1.77-1.9a2.07,2.07,0,0,1,2.31-2,3.36,3.36,0,0,1,1.65.41l-.3.89a2.57,2.57,0,0,0-1.37-.39c-.72,0-1.13.42-1.13.92s.41.8,1.28,1.14c1.16.44,1.76,1,1.76,2,0,1.18-.92,2-2.51,2a3.78,3.78,0,0,1-1.88-.46Z"/></g></g></svg>