<svg xmlns="http://www.w3.org/2000/svg" viewBox="0 0 241.83 77.52"><defs><style>.cls-1{fill:#0a4b6c;}</style></defs><g id="Capa_2" data-name="Capa 2"><g id="Capa_1-2" data-name="Capa 1"><path class="cls-1" d="M16.66,4C7,6.32,0,17.2,7.18,33.51h0c7.17,16.3,11.65,23.2,11.65,23.2h0a92.08,92.08,0,0,1-5.83-20h0c-1.43-9.31-.77-18.87,5-19.89h0c12.39-2.19,16.49,14.22,16.49,14.22h0S49.12,18,58,26.69h0c9.35,9.23.18,20.5.18,20.5h0a42.25,42.25,0,0,0,8.18-9.8h0C69.81,31.36,70,20.6,58.14,18h0C44.26,14.89,37,24.39,37,24.39h0l-.23,0c2-7.7-5.57-20.77-16.66-20.77h0A14.73,14.73,0,0,0,16.66,4"/><path class="cls-1" d="M51.83,15.85a23.44,23.44,0,0,1,8.59.39h0c11.82,2.62,11,13.05,8.18,19.41h0a45.43,45.43,0,0,1-4.56,8h0a40.67,40.67,0,0,0,6.73-8.45h0c3.49-6,3.65-16.79-8.18-19.42h0a24.93,24.93,0,0,0-5.42-.61h0a21.44,21.44,0,0,0-5.34.66"/><path class="cls-1" d="M19.2.56c-.54.2-1.07.42-1.59.65h0c9.46-2.57,22.18,10.38,21.62,18.38h0C41,12.4,31.54,0,22.44,0h0A9.57,9.57,0,0,0,19.2.56"/><path class="cls-1" d="M12.35,2.08C3.1,5.64-4.29,15.27,2.88,31.58h0c6,13.55,10.05,20.61,11.27,22.6h0c-1.9-3.73-5.6-11.37-10.3-22.71h0C-3,15,4.08,5.53,13.33,2h0a10.08,10.08,0,0,1,1.75-.47h0a9.39,9.39,0,0,0-2.73.58"/><path class="cls-1" d="M68.61,40.69s-.86.79-3.9,3.7h0c-3,2.92-11.65,8-18,11h0c-6.36,3-14.29,5-14.92,3.14h0c-.63-1.84,7.25-5.65,10.79-7.44h0c3.54-1.8,3.66-3.78,3.83-4.41h0c.16-.63-.19-.49-.19-.49h0a60.34,60.34,0,0,0-7.39,3.25h0c-6,2.88-10.47,2.14-18.64,8.49h0c-9.45,7.36-8.61,16.55-8.61,16.55h0C20.71,68.09,25,71.59,36.3,68.9h0a45.43,45.43,0,0,0,17.83-8.33h0C61,56.35,68.11,43.9,69,41h0c.09-.28,0-.35-.14-.35h0a.71.71,0,0,0-.27.07"/><path class="cls-1" d="M54.59,61.83a45.36,45.36,0,0,1-17.84,8.33h0c-11.15,2.66-15.48-.72-24.4,5.33h0a10.9,10.9,0,0,0,0,2h0C21.43,71.16,25.73,74.65,37,72h0a45.45,45.45,0,0,0,17.84-8.34h0A33.71,33.71,0,0,0,62.44,54h0a32.62,32.62,0,0,1-7.85,7.79"/><path class="cls-1" d="M82.78,47h2.49V11.53H82.78ZM116,11.53V29.17c0,5.57,0,9.62.41,14.37h0l-.11.08a114.17,114.17,0,0,0-6.65-11.16h0L95.82,11.53H93.45V47h2.43V29c0-5.9,0-9.71-.33-14.08h0l.14-.07a115.48,115.48,0,0,0,6.87,11.46h0L116.08,47h2.34V11.53Zm19.94,9c.77-2.24,1.34-4.08,1.84-6.14h.13a64.79,64.79,0,0,0,1.85,6.24h0l4.31,11.84H131.59Zm.74-9L123.86,47h2.56l4.38-12.39h14L149.28,47h2.59L139.11,11.53Zm53.84,0V47h18.35V44.85H193V29.35h14.16V27.23H193V13.64h15V11.53Zm33.41,9c.77-2.24,1.34-4.08,1.84-6.14h.13a64.79,64.79,0,0,0,1.85,6.24h0l4.32,11.84H219.58Zm.75-9L211.85,47h2.56l4.38-12.39h14L237.27,47h2.59L227.1,11.53ZM159.41,44.86V13.92a32.87,32.87,0,0,1,6.43-.57h0c11.36,0,16.35,6.15,16.27,15.14h0c0,10.27-5.6,16.63-17,16.63h0a42.53,42.53,0,0,1-5.72-.26M156.91,12V46.92a74.28,74.28,0,0,0,7.85.32h0c6.83,0,12.17-2,15.29-5.43h0c3.2-3.53,4.63-8.23,4.63-13.43h0c0-5.37-1.57-9.34-4.42-12.28h0c-2.92-3.1-7.81-4.85-14.26-4.85h0a55.43,55.43,0,0,0-9.09.76"/><path class="cls-1" d="M82.4,55.93v8.63H81.29V55.93Z"/><path class="cls-1" d="M84.44,60c0-.64,0-1.17,0-1.68h1l.07,1h0a2.3,2.3,0,0,1,2.06-1.17c.85,0,2.19.51,2.19,2.64v3.7H88.59V61c0-1-.37-1.84-1.44-1.84a1.6,1.6,0,0,0-1.51,1.16,1.62,1.62,0,0,0-.08.52v3.73H84.44Z"/><path class="cls-1" d="M91.39,63.41a3,3,0,0,0,1.49.45c.82,0,1.2-.41,1.2-.92s-.32-.84-1.15-1.15c-1.11-.39-1.64-1-1.64-1.75a1.91,1.91,0,0,1,2.14-1.82A3.18,3.18,0,0,1,95,58.6l-.29.82a2.44,2.44,0,0,0-1.27-.35c-.66,0-1,.38-1,.84s.37.74,1.18,1.05c1.07.41,1.62.95,1.62,1.87,0,1.09-.84,1.86-2.32,1.86a3.61,3.61,0,0,1-1.74-.42Z"/><path class="cls-1" d="M98,56.58v1.78h1.61v.86H98v3.34c0,.77.22,1.21.84,1.21a2.44,2.44,0,0,0,.66-.08l0,.85a2.8,2.8,0,0,1-1,.15,1.59,1.59,0,0,1-1.22-.47,2.33,2.33,0,0,1-.43-1.62V59.22h-1v-.86h1V56.87Z"/><path class="cls-1" d="M102.12,56.62a.7.7,0,0,1-1.4,0,.69.69,0,0,1,.7-.71A.67.67,0,0,1,102.12,56.62Zm-1.26,7.94v-6.2H102v6.2Z"/><path class="cls-1" d="M105.22,56.58v1.78h1.61v.86h-1.61v3.34c0,.77.21,1.21.84,1.21a2.35,2.35,0,0,0,.65-.08l.06.85a2.8,2.8,0,0,1-1,.15,1.59,1.59,0,0,1-1.22-.47,2.33,2.33,0,0,1-.44-1.62V59.22h-1v-.86h1V56.87Z"/><path class="cls-1" d="M113.29,62.87c0,.64,0,1.21,0,1.69h-1l-.06-1h0a2.33,2.33,0,0,1-2,1.15c-1,0-2.14-.53-2.14-2.71V58.36h1.13v3.43c0,1.18.36,2,1.38,2a1.64,1.64,0,0,0,1.49-1,1.7,1.7,0,0,0,.1-.57V58.36h1.13Z"/><path class="cls-1" d="M116.52,56.58v1.78h1.61v.86h-1.61v3.34c0,.77.21,1.21.84,1.21a2.35,2.35,0,0,0,.65-.08l.06.85a2.8,2.8,0,0,1-1,.15,1.59,1.59,0,0,1-1.22-.47,2.33,2.33,0,0,1-.44-1.62V59.22h-1v-.86h1V56.87Z"/><path class="cls-1" d="M124.93,61.41a3,3,0,0,1-3.09,3.29,3,3,0,0,1-3-3.19A3,3,0,0,1,122,58.22,2.93,2.93,0,0,1,124.93,61.41Zm-4.92.06c0,1.36.78,2.39,1.89,2.39s1.88-1,1.88-2.41c0-1.05-.53-2.38-1.86-2.38S120,60.3,120,61.47Z"/><path class="cls-1" d="M129.11,64.56V55.93h1.21l2.77,4.37a24.65,24.65,0,0,1,1.55,2.8h0c-.1-1.15-.13-2.21-.13-3.55V55.93h1.05v8.63h-1.13l-2.74-4.38a27.14,27.14,0,0,1-1.61-2.88h0c.06,1.09.09,2.13.09,3.56v3.69Z"/><path class="cls-1" d="M140.93,64.56l-.09-.78h0a2.28,2.28,0,0,1-1.89.92,1.77,1.77,0,0,1-1.9-1.78c0-1.5,1.33-2.32,3.73-2.3v-.13a1.28,1.28,0,0,0-1.41-1.44,3.07,3.07,0,0,0-1.61.46l-.26-.74a3.88,3.88,0,0,1,2-.55c1.89,0,2.36,1.29,2.36,2.54v2.32a8.4,8.4,0,0,0,.1,1.48Zm-.16-3.16c-1.23,0-2.63.19-2.63,1.39a1,1,0,0,0,1.06,1.08,1.54,1.54,0,0,0,1.5-1,1.1,1.1,0,0,0,.07-.36Z"/><path class="cls-1" d="M148.09,64.33a4,4,0,0,1-1.78.36,3,3,0,0,1-3.09-3.16,3.16,3.16,0,0,1,3.34-3.3,3.85,3.85,0,0,1,1.56.32l-.26.87a2.65,2.65,0,0,0-1.3-.29,2.34,2.34,0,0,0,0,4.66,3.21,3.21,0,0,0,1.38-.3Z"/><path class="cls-1" d="M150.67,56.62a.7.7,0,0,1-1.4,0,.69.69,0,0,1,.71-.71A.67.67,0,0,1,150.67,56.62Zm-1.26,7.94v-6.2h1.13v6.2Z"/><path class="cls-1" d="M158,61.41a3,3,0,0,1-3.09,3.29,3,3,0,0,1-3-3.19A3,3,0,0,1,155,58.22,2.93,2.93,0,0,1,158,61.41Zm-4.92.06c0,1.36.78,2.39,1.89,2.39s1.88-1,1.88-2.41c0-1.05-.53-2.38-1.86-2.38S153.1,60.3,153.1,61.47Z"/><path class="cls-1" d="M159.44,60c0-.64,0-1.17-.05-1.68h1l.06,1h0a2.29,2.29,0,0,1,2.05-1.17c.86,0,2.19.51,2.19,2.64v3.7H163.6V61c0-1-.38-1.84-1.44-1.84a1.6,1.6,0,0,0-1.51,1.16,1.62,1.62,0,0,0-.08.52v3.73h-1.13Z"/><path class="cls-1" d="M170,64.56l-.09-.78h0a2.3,2.3,0,0,1-1.9.92,1.77,1.77,0,0,1-1.9-1.78c0-1.5,1.34-2.32,3.73-2.3v-.13a1.28,1.28,0,0,0-1.41-1.44,3.12,3.12,0,0,0-1.61.46l-.26-.74a3.91,3.91,0,0,1,2-.55c1.9,0,2.36,1.29,2.36,2.54v2.32a8.4,8.4,0,0,0,.1,1.48Zm-.17-3.16c-1.23,0-2.63.19-2.63,1.39a1,1,0,0,0,1.07,1.08,1.55,1.55,0,0,0,1.5-1,1.43,1.43,0,0,0,.06-.36Z"/><path class="cls-1" d="M172.73,55.46h1.12v9.1h-1.12Z"/><path class="cls-1" d="M183.82,55.46V63c0,.55,0,1.18.05,1.6h-1l-.05-1.07h0a2.28,2.28,0,0,1-2.11,1.21c-1.5,0-2.65-1.26-2.65-3.15,0-2.06,1.27-3.33,2.78-3.33a2.07,2.07,0,0,1,1.87,1h0V55.46Zm-1.13,5.42a1.88,1.88,0,0,0-.05-.47A1.65,1.65,0,0,0,181,59.1c-1.17,0-1.86,1-1.86,2.4s.61,2.29,1.83,2.29a1.69,1.69,0,0,0,1.65-1.34,1.94,1.94,0,0,0,.05-.49Z"/><path class="cls-1" d="M186.32,61.67a2,2,0,0,0,2.13,2.15,4,4,0,0,0,1.71-.32l.2.81a5.07,5.07,0,0,1-2.07.38,2.88,2.88,0,0,1-3-3.13c0-1.87,1.1-3.34,2.91-3.34,2,0,2.56,1.78,2.56,2.92,0,.23,0,.41,0,.53Zm3.31-.81A1.61,1.61,0,0,0,188.06,59a1.87,1.87,0,0,0-1.73,1.83Z"/><path class="cls-1" d="M196.26,61.85l-.9,2.71h-1.15l2.93-8.63h1.35l2.95,8.63h-1.19l-.93-2.71Zm2.83-.88-.84-2.48c-.2-.57-.32-1.08-.45-1.58h0c-.13.51-.27,1-.43,1.57L196.49,61Z"/><path class="cls-1" d="M202.63,60.3c0-.73,0-1.36,0-1.94h1l0,1.22h.05a1.86,1.86,0,0,1,1.72-1.36,1,1,0,0,1,.32,0v1.06a2.11,2.11,0,0,0-.38,0,1.6,1.6,0,0,0-1.52,1.45,3.83,3.83,0,0,0,0,.53v3.3h-1.11Z"/><path class="cls-1" d="M206.87,60.3c0-.73,0-1.36-.05-1.94h1l0,1.22h0a1.86,1.86,0,0,1,1.72-1.36,1,1,0,0,1,.32,0v1.06a2.11,2.11,0,0,0-.38,0A1.6,1.6,0,0,0,208,60.73a3.83,3.83,0,0,0-.05.53v3.3h-1.11Z"/><path class="cls-1" d="M212.36,56.62a.7.7,0,0,1-1.39,0,.69.69,0,0,1,.7-.71A.67.67,0,0,1,212.36,56.62Zm-1.25,7.94v-6.2h1.12v6.2Z"/><path class="cls-1" d="M215.46,56.58v1.78h1.62v.86h-1.62v3.34c0,.77.22,1.21.85,1.21a2.41,2.41,0,0,0,.65-.08l0,.85a2.72,2.72,0,0,1-1,.15,1.58,1.58,0,0,1-1.21-.47,2.33,2.33,0,0,1-.44-1.62V59.22h-1v-.86h1V56.87Z"/><path class="cls-1" d="M218.35,60c0-.64,0-1.17-.06-1.68h1l.05,1h0a2.14,2.14,0,0,1,1.95-1.14,1.82,1.82,0,0,1,1.75,1.24h0a2.79,2.79,0,0,1,.69-.81,2.12,2.12,0,0,1,1.37-.43c.82,0,2,.54,2,2.69v3.65h-1.1V61.05c0-1.19-.44-1.91-1.35-1.91a1.46,1.46,0,0,0-1.33,1,1.88,1.88,0,0,0-.09.56v3.83h-1.1V60.85c0-1-.44-1.71-1.3-1.71a1.55,1.55,0,0,0-1.39,1.13,1.45,1.45,0,0,0-.09.55v3.74h-1.1Z"/><path class="cls-1" d="M230.29,56.62a.7.7,0,0,1-1.4,0,.69.69,0,0,1,.7-.71A.67.67,0,0,1,230.29,56.62ZM229,64.56v-6.2h1.13v6.2Z"/><path class="cls-1" d="M235.46,64.56l-.09-.78h0a2.28,2.28,0,0,1-1.89.92,1.77,1.77,0,0,1-1.9-1.78c0-1.5,1.33-2.32,3.73-2.3v-.13a1.28,1.28,0,0,0-1.41-1.44,3.07,3.07,0,0,0-1.61.46l-.26-.74a3.86,3.86,0,0,1,2-.55c1.89,0,2.35,1.29,2.35,2.54v2.32a8.34,8.34,0,0,0,.11,1.48Zm-.16-3.16c-1.24,0-2.63.19-2.63,1.39a1,1,0,0,0,1.06,1.08,1.54,1.54,0,0,0,1.5-1,1.1,1.1,0,0,0,.07-.36Z"/><path class="cls-1" d="M238.05,63.41a2.91,2.91,0,0,0,1.48.45c.82,0,1.21-.41,1.21-.92s-.32-.84-1.15-1.15c-1.12-.39-1.64-1-1.64-1.75a1.91,1.91,0,0,1,2.14-1.82,3.17,3.17,0,0,1,1.52.38l-.28.82a2.44,2.44,0,0,0-1.27-.35c-.67,0-1,.38-1,.84s.37.74,1.18,1.05c1.08.41,1.63.95,1.63,1.87,0,1.09-.85,1.86-2.32,1.86a3.58,3.58,0,0,1-1.74-.42Z"/></g></g></svg>